<?xml version="1.0" encoding="UTF-8"?>
<svg width="19px" height="18px" viewBox="0 0 19 18" version="1.1" xmlns="http://www.w3.org/2000/svg" xmlns:xlink="http://www.w3.org/1999/xlink">
    <!-- Generator: Sketch 63.1 (92452) - https://sketch.com -->
    <title>icon_close</title>
    <desc>Created with Sketch.</desc>
    <g id="Mobile" stroke="none" stroke-width="1" fill="none" fill-rule="evenodd">
        <g id="Mobile-Menu" transform="translate(-375.000000, -88.000000)" fill="#FFFFFF" fill-rule="nonzero">
            <g id="icon_close" transform="translate(384.333333, 97.000000) rotate(-315.000000) translate(-384.333333, -97.000000) translate(371.000000, 85.000000)">
                <path d="M12,1.33333333 L12,22.6666667 C12,23.4030463 12.5969537,24 13.3333333,24 C14.069713,24 14.6666667,23.4030463 14.6666667,22.6666667 L14.6666667,1.33333333 C14.6666667,0.596953667 14.069713,0 13.3333333,0 C12.5969537,0 12,0.596953667 12,1.33333333 Z" id="Line-3"></path>
                <path d="M24,10.6666667 L2.66666667,10.6666667 C1.930287,10.6666667 1.33333333,11.2636203 1.33333333,12 C1.33333333,12.7363797 1.930287,13.3333333 2.66666667,13.3333333 L24,13.3333333 C24.7363797,13.3333333 25.3333333,12.7363797 25.3333333,12 C25.3333333,11.2636203 24.7363797,10.6666667 24,10.6666667 Z" id="Line-3"></path>
            </g>
        </g>
    </g>
</svg>