<svg width="30" height="30" viewBox="0 0 30 30" fill="none" xmlns="http://www.w3.org/2000/svg">
<path d="M24.6504 26.4082C22.0488 28.6055 18.6739 30 15 30C9.5332 30 4.73432 26.9883 2.13281 22.5937L3.10676 18.1042L7.42383 17.3027C8.42578 20.537 11.4492 22.9102 15 22.9102C16.7226 22.9102 18.3223 22.3652 19.6406 21.3984L23.7891 22.0312L24.6504 26.4082Z" fill="white"/>
<path d="M24.6504 26.4082L23.7891 22.0312L19.6406 21.3984C18.3223 22.3652 16.7226 22.9102 15 22.9102V30C18.6739 30 22.0488 28.6055 24.6504 26.4082Z" fill="white"/>
<path d="M7.08984 15C7.08984 15.8085 7.21289 16.582 7.42383 17.3027L2.13281 22.5938C0.814453 20.3789 0 17.7773 0 15C0 12.2226 0.814453 9.62109 2.13281 7.40625L6.37928 8.13709L7.42383 12.6973C7.21289 13.4179 7.08984 14.1913 7.08984 15Z" fill="white"/>
<path d="M30 15C30 19.5703 27.8848 23.666 24.6504 26.4082L19.6406 21.3984C20.6601 20.6601 21.5215 19.6757 22.084 18.5156H15C14.5078 18.5156 14.1211 18.1288 14.1211 17.6367V12.3633C14.1211 11.871 14.5078 11.4844 15 11.4844H28.875C29.2969 11.4844 29.666 11.7831 29.7363 12.205C29.9121 13.1191 30 14.0683 30 15Z" fill="white"/>
<path d="M22.084 18.5156C21.5215 19.6757 20.6601 20.6601 19.6407 21.3984L24.6504 26.4082C27.8848 23.666 30 19.5703 30 15C30 14.0683 29.9121 13.1191 29.7363 12.205C29.666 11.7831 29.2968 11.4844 28.8749 11.4844H15V18.5156H22.084Z" fill="white"/>
<path d="M24.8965 4.18939C24.9141 4.43549 24.8086 4.66406 24.6504 4.83979L20.8887 8.58393C20.5899 8.90033 20.0977 8.93549 19.7462 8.67182C18.3574 7.63477 16.7226 7.08984 15 7.08984C11.4492 7.08984 8.42578 9.46283 7.42383 12.6973L2.13281 7.40625C4.73432 3.01172 9.5332 0 15 0C18.498 0 21.9082 1.28906 24.5801 3.539C24.7734 3.69727 24.8789 3.9433 24.8965 4.18939Z" fill="white"/>
<path d="M19.7461 8.67182C20.0977 8.93555 20.5898 8.90033 20.8886 8.58393L24.6503 4.83979C24.8086 4.66406 24.9141 4.43555 24.8964 4.18939C24.8788 3.94324 24.7734 3.69727 24.58 3.539C21.9082 1.28906 18.498 0 15 0V7.08984C16.7226 7.08984 18.3574 7.63477 19.7461 8.67182Z" fill="white"/>
</svg>
